<svg width="749" height="489" viewBox="0 0 749 489" fill="none" xmlns="http://www.w3.org/2000/svg">
<g filter="url(#filter0_d)">
<path d="M86.7286 151.536H14V172.473H33.8351V194.512H60.2819V220.959H81.2189V241.896H104.36V271.649L146.234 277.159H205.739V241.896V222.061V106.356H157.253V127.293H86.7286V151.536Z" fill="#100C0C"/>
<path d="M103.258 293.688V269.445L199.127 274.955V245.202H221.166L227.5 258.5L245.409 269.445V293.688H270.754V269.445H292.793V245.202H337.973L344.584 197.818L427.5 202.5L409.5 219.5L416 233.5L390.866 250.712H394L369 271.5L318.138 269.445V293.688L274.06 298.096L270.754 325.5L150.641 319.033V293.688H103.258Z" fill="#5F5F5F"/>
<path d="M323.861 414.604H347.891V435.201H414.259V414.604H390.229V371.121H347.891V285.3H323.861V218.932H299.831V168.583H323.861V144.554H432.567V192.613H419.98V209.5L390.229 232.663H347.891V253.26L390.229 248V335.648V360.822H407.393V398.584H432.567V477.539H407.393V459.231H390.229V477.539H370.776V459.231H323.861V414.604Z" fill="#100C0C"/>
<path d="M345.602 439.776L416.548 438.632V412.314H391.373V371.12H351.324V284.154H323.861L367 275L391.373 251.5L384.5 230.5L391.373 212.5L323.861 147.985H404V91.9152L397 96.4923V78.8953L374.711 72.4624L377 60.144L279.234 54.4226L280.378 65.5968H220.876V96.4923H201.5L198.5 261.269H231.174V284.154H206V329.925H231.174V375.697H258.637V419.179V439.776H280.378V419.179H303.264V431.766H323.861V416.891H345.602V439.776Z" fill="#100C0C"/>
<path d="M234.607 419.18V374.553H258.637V419.18H234.607Z" fill="#121010"/>
<path d="M303.263 435.2H280.378V413.458L303.263 419.18V435.2Z" fill="#121010"/>
<path d="M428.333 87.6231H409.6V153.74H422.823V200.022L450.372 196.716V172.473V130.599H428.333V87.6231Z" fill="#BBB7B3"/>
<path d="M450.372 92.0321H427.231V131.702H450.372V175.78H605.747V154.843H634.397L617.868 30.3229H599.135L593.625 7.18201L509.877 0.570312V22.6093H491.144V42.4444H469.105V64.4834H450.372V92.0321Z" fill="#515C29"/>
<path d="M512.081 110.765V49.0562H534.12V22.6094H573.79V43.5464L594.727 49.0562L601.339 110.765H581.504V131.702H534.12V110.765H512.081Z" fill="white"/>
<path d="M556.159 85.419V49.0547H575.994V85.419H556.159Z" fill="#050505" stroke="black"/>
<path d="M658.64 46.8535H620.072V114.072H658.64L664.15 139.417H747.898V89.8295H698.31V69.9944H658.64V46.8535Z" fill="#AF6838"/>
<path d="M749 155.946H625.582V114.072H661.946L669.66 137.213H749V155.946Z" fill="#80431F"/>
<path d="M114.277 309.117L139.622 316.831L206.841 322.341V338.87H181.496V364.215L160.559 371.928L147.336 389.559H121.991V420.414H102.156L98.8501 376.336L73.5052 371.928V338.87H102.156V316.831L114.277 309.117Z" fill="#7F421D"/>
<path d="M127.501 321.237H104.36H96.6464V339.97H76.8113V374.131H96.6464V420.413H121.991V386.252H148.438V345.48H127.501V321.237Z" fill="#A95A25"/>
</g>
<defs>
<filter id="filter0_d" x="0" y="0.570312" width="749" height="488.4" filterUnits="userSpaceOnUse" color-interpolation-filters="sRGB">
<feFlood flood-opacity="0" result="BackgroundImageFix"/>
<feColorMatrix in="SourceAlpha" type="matrix" values="0 0 0 0 0 0 0 0 0 0 0 0 0 0 0 0 0 0 127 0" result="hardAlpha"/>
<feOffset dx="-10" dy="4"/>
<feGaussianBlur stdDeviation="2"/>
<feComposite in2="hardAlpha" operator="out"/>
<feColorMatrix type="matrix" values="0 0 0 0 0 0 0 0 0 0 0 0 0 0 0 0 0 0 0.25 0"/>
<feBlend mode="normal" in2="BackgroundImageFix" result="effect1_dropShadow"/>
<feBlend mode="normal" in="SourceGraphic" in2="effect1_dropShadow" result="shape"/>
</filter>
</defs>
</svg>
